<svg xmlns="http://www.w3.org/2000/svg" width="300" height="82" viewBox="0 0 300 82" version="1.1"><path d="M 0 40.932 L 0 82 10.607 82 C 20.342 82, 21.149 81.856, 20.428 80.250 C 19.996 79.287, 19.452 72.492, 19.220 65.148 L 18.799 51.797 21.649 52.331 C 23.217 52.625, 26.116 53.127, 28.090 53.448 C 33.915 54.393, 37.135 59.036, 41.988 73.488 L 44.678 81.500 56.589 81.778 C 67.664 82.037, 68.343 81.946, 66.265 80.482 C 63.179 78.308, 59.434 71.626, 56.552 63.152 C 53.815 55.106, 51.998 52.105, 48.842 50.416 C 46.733 49.287, 46.777 49.200, 50.310 47.523 C 55.367 45.123, 60.670 38.933, 62.060 33.807 C 64.547 24.635, 61.552 12.625, 55.342 6.864 C 48.808 0.804, 47.460 0.527, 22.750 0.182 L 0 -0.135 0 40.932 M 19 26.455 L 19 38.187 28.979 37.844 C 38.161 37.527, 39.166 37.292, 41.554 34.903 C 44.528 31.926, 45.711 25.903, 44.128 21.798 C 42.554 17.718, 37.769 15.793, 27.783 15.223 L 19 14.723 19 26.455 M 86.500 21.347 C 80.304 23.387, 76.822 25.502, 72.799 29.668 C 67.158 35.510, 64.737 41.928, 64.737 51.037 C 64.737 65.003, 69.412 73.602, 79.771 78.687 C 85.271 81.387, 86.080 81.498, 100 81.452 C 113.461 81.408, 115.109 81.191, 123 78.421 L 131.500 75.437 137.328 78.426 C 142.306 80.979, 144.552 81.475, 152.727 81.833 C 163.034 82.284, 171.103 80.979, 177.233 77.870 L 180.967 75.976 178.247 70.238 C 176.751 67.082, 175.461 64.365, 175.381 64.200 C 175.300 64.035, 172.435 64.843, 169.014 65.995 C 164.714 67.444, 160.899 67.999, 156.648 67.795 L 150.500 67.500 157 64.012 C 166.207 59.071, 173.318 51.767, 174.851 45.675 C 178.704 30.376, 166.590 18.362, 149.355 20.388 C 138.586 21.654, 128.875 28.540, 124.727 37.851 C 122.513 42.821, 121.772 54.664, 123.302 60.626 L 124.105 63.753 116.077 65.919 C 110.303 67.477, 105.866 68.003, 100.274 67.793 L 92.500 67.500 99 64 C 102.575 62.075, 107.817 58.250, 110.649 55.500 C 115.004 51.271, 115.965 49.652, 116.884 45 C 119.651 30.992, 111.416 20.966, 96.600 20.303 C 93.245 20.152, 88.700 20.622, 86.500 21.347 M 201.500 21.607 C 184.047 27.185, 176.397 43.640, 182.159 63.212 C 184.051 69.638, 193.105 78.360, 200.013 80.411 C 210.344 83.479, 224.689 81.994, 232.767 77.020 L 236.033 75.009 232.959 68.920 C 230.519 64.085, 229.536 62.979, 228.193 63.551 C 211.996 70.451, 199.769 64.931, 199.769 50.720 C 199.769 45.167, 201.684 41.861, 206.990 38.250 C 211.237 35.360, 219.693 35.223, 225.696 37.949 L 229.891 39.853 232.778 33.677 C 235.611 27.616, 235.628 27.474, 233.710 26.107 C 226.515 20.983, 210.468 18.741, 201.500 21.607 M 260.734 21.024 C 247.697 24.316, 239.372 34.492, 238.247 48.511 C 237.260 60.809, 243.232 72.948, 252.935 78.367 C 257.543 80.940, 259.693 81.465, 267.074 81.818 C 282.168 82.540, 291.529 77.764, 297.065 66.520 C 300.036 60.485, 300.175 59.674, 299.844 50.333 C 299.558 42.296, 299.043 39.616, 297.024 35.657 C 294.114 29.954, 289.303 25.464, 283.218 22.772 C 278.157 20.534, 266.323 19.614, 260.734 21.024 M 91.030 35.279 C 87.238 37.198, 84.203 42.526, 83.445 48.596 C 83.067 51.619, 83.023 54.356, 83.346 54.679 C 84.389 55.722, 94.428 50.188, 97.652 46.793 C 102.186 42.019, 102.654 39.563, 99.608 36.517 C 96.812 33.722, 94.708 33.418, 91.030 35.279 M 149.500 34.954 C 146.763 36.086, 143.352 39.923, 142.067 43.315 C 140.696 46.933, 140.677 56, 142.040 56 C 144.263 56, 151.679 51.616, 155.250 48.191 C 158.274 45.291, 159 43.870, 159 40.854 C 159 35.363, 154.807 32.759, 149.500 34.954 M 263.873 36.628 C 257.635 40.632, 255.247 51.248, 258.784 59.245 C 261.177 64.654, 264.606 67.200, 269.500 67.200 C 278.297 67.200, 283.714 57.313, 281.035 46.146 C 278.907 37.274, 270.301 32.501, 263.873 36.628" stroke="none" fill="#1e633f" fill-rule="evenodd"/><path d="" stroke="none" fill="#fff" fill-rule="evenodd"/><path d="" stroke="none" fill="#fff" fill-rule="evenodd"/></svg>